<svg xmlns="http://www.w3.org/2000/svg" width="28" height="28" fill="currentColor" viewBox="0 0 22 22" aria-hidden="true"><g clip-path="url(#IconSearch__clip0_8714_124321)"><path d="M9.944 18.05c-4.473 0-8.108-3.64-8.108-8.109S5.47 1.833 9.944 1.833s8.108 3.635 8.108 8.108-3.64 8.108-8.108 8.108m0-14.383A6.28 6.28 0 0 0 3.669 9.94a6.28 6.28 0 0 0 6.275 6.275 6.28 6.28 0 0 0 6.274-6.275 6.28 6.28 0 0 0-6.274-6.274"></path><path d="M5.854 10.858a.92.92 0 0 1-.917-.917 5.013 5.013 0 0 1 5.01-5.01.92.92 0 0 1 .917.917.92.92 0 0 1-.917.917 3.18 3.18 0 0 0-3.176 3.176.92.92 0 0 1-.917.917M18.91 20.048a.91.91 0 0 1-.645-.27L14.4 15.912a.918.918 0 0 1 1.297-1.297l3.864 3.864a.918.918 0 0 1-.646 1.567z"></path></g></svg>