<svg xmlns="http://www.w3.org/2000/svg" width="20" height="21" viewBox="0 0 20 21" fill="none">
  <g clip-path="url(#clip0_23014_431206)">
    <path d="M10.0654 4.23766C9.84036 4.01266 9.76536 3.93766 9.3237 3.92516L7.3862 3.896H3.33203L3.34036 9.92933C3.36536 10.3627 3.44453 10.4418 3.65286 10.6502L9.8737 16.871C9.95703 16.9543 10.032 16.9543 10.1154 16.871L16.2862 10.7002C16.3279 10.6585 16.3362 10.6127 16.3362 10.5793C16.3362 10.546 16.3279 10.5002 16.2862 10.4585L10.0654 4.23766ZM7.50703 8.14183C7.18203 8.46683 6.65286 8.46683 6.32786 8.14183C6.00286 7.81683 6.00286 7.28766 6.32786 6.96266C6.65286 6.63766 7.18203 6.63766 7.50703 6.96266C7.83203 7.28766 7.83203 7.81683 7.50703 8.14183Z" fill="#FFE91C"/>
    <path d="M7.50768 6.95842C7.83268 7.28342 7.83268 7.81258 7.50768 8.13758C7.18268 8.46258 6.65352 8.46258 6.32852 8.13758C6.00352 7.81258 6.00352 7.28342 6.32852 6.95842C6.65352 6.63342 7.18268 6.63342 7.50768 6.95842ZM11.291 18.0501L17.4618 11.8792C17.8077 11.5334 17.9993 11.0709 17.9993 10.5792C17.9993 10.0876 17.8077 9.62508 17.4618 9.27925L11.2243 3.04175C10.8452 2.66258 10.391 2.28758 9.35768 2.25841L7.39935 2.22925H2.49935C2.27852 2.22925 2.06602 2.31675 1.91185 2.47508C1.75352 2.62925 1.66602 2.84175 1.66602 3.06258L1.67435 9.97508C1.72852 11.0042 2.08268 11.4376 2.47435 11.8292L8.69518 18.0501C9.04102 18.3959 9.50352 18.5876 9.99518 18.5876C10.4868 18.5876 10.9493 18.3959 11.2952 18.0501H11.291ZM7.38685 3.89591L9.32435 3.92508C9.76602 3.93758 9.84518 4.01258 10.066 4.23758L16.2868 10.4584C16.3285 10.5001 16.3368 10.5459 16.3368 10.5792C16.3368 10.6126 16.3285 10.6584 16.2868 10.7001L10.116 16.8709C10.0327 16.9542 9.95352 16.9542 9.87435 16.8709L3.65352 10.6501C3.44518 10.4417 3.36602 10.3626 3.34102 9.92925L3.33268 3.89591H7.38685Z" fill="black"/>
  </g>
  <defs>
    <clipPath id="clip0_23014_431206">
      <rect width="16.3375" height="16.3583" fill="white" transform="translate(1.66602 2.22925)"/>
    </clipPath>
  </defs>
</svg>