<svg width="28" height="28" viewBox="0 0 28 28" fill="currentColor" xmlns="http://www.w3.org/2000/svg"><path d="M22.3618 25.2755H5.2526C3.6426 25.2755 2.33594 23.963 2.33594 22.3588V5.24967C2.33594 3.64551 3.64844 2.33301 5.2526 2.33301H22.3559C23.9659 2.33301 25.2726 3.64551 25.2726 5.24967V22.353C25.2726 23.963 23.9601 25.2697 22.3559 25.2697L22.3618 25.2755ZM5.2526 4.66634C4.93177 4.66634 4.66927 4.92884 4.66927 5.24967V22.353C4.66927 22.6738 4.93177 22.9363 5.2526 22.9363H22.3559C22.6768 22.9363 22.9393 22.6738 22.9393 22.353V5.24967C22.9393 4.92884 22.6768 4.66634 22.3559 4.66634H5.2526Z"></path><path d="M13.8073 21.2855C13.5507 21.2855 13.2882 21.1863 13.0898 20.9938L8.95399 16.9105C8.55149 16.5138 8.54566 15.8663 8.94233 15.4696C9.33899 15.0671 9.98649 15.0671 10.3832 15.458L13.8073 18.8296L17.2257 15.458C17.6282 15.0613 18.2757 15.0671 18.6665 15.4696C19.0632 15.8721 19.0573 16.5196 18.6548 16.9105L14.5248 20.9938C14.3265 21.1921 14.064 21.2855 13.8073 21.2855Z"></path><path d="M17.9432 12.4478C17.6865 12.4478 17.424 12.3486 17.2257 12.1561L13.8073 8.78444L10.3832 12.1561C9.98066 12.5528 9.33316 12.5469 8.94233 12.1444C8.54566 11.7419 8.55149 11.0944 8.95399 10.7036L13.0898 6.62027C13.4865 6.22944 14.1282 6.22944 14.5248 6.62027L18.6548 10.7036C19.0573 11.1003 19.0573 11.7478 18.6665 12.1444C18.4682 12.3486 18.2057 12.4478 17.9373 12.4478H17.9432Z"></path><path d="M13.8099 19.8796C13.2441 19.8796 12.7891 19.4246 12.7891 18.8588V8.37044C12.7891 7.80461 13.2441 7.34961 13.8099 7.34961C14.3757 7.34961 14.8307 7.80461 14.8307 8.37044V18.8588C14.8307 19.4246 14.3757 19.8796 13.8099 19.8796Z"></path></svg>