<svg xmlns="http://www.w3.org/2000/svg" width="28" height="28" fill="currentColor" viewBox="0 0 22 22" aria-hidden="true"><g clip-path="url(#IconMeu__clip0_8714_129419)"><path d="M18.482 5.958H3.206a.92.92 0 0 1-.917-.916.92.92 0 0 1 .917-.917h15.276a.92.92 0 0 1 .917.917.92.92 0 0 1-.917.916M18.482 11.802H3.206a.92.92 0 0 1-.917-.917.92.92 0 0 1 .917-.916h15.276a.92.92 0 0 1 .917.916.92.92 0 0 1-.917.917M18.482 17.65H3.206a.92.92 0 0 1-.917-.916.92.92 0 0 1 .917-.917h15.276a.92.92 0 0 1 .917.917.92.92 0 0 1-.917.916"></path></g></svg>