<svg xmlns="http://www.w3.org/2000/svg" width="60" height="63" fill="none"><path d="M54.879 43.072c-4.258-4.79-3.664-7.58 2.121-10.51-5.785-2.928-6.379-5.72-2.121-10.508-6.405-.287-7.958-2.572-5.787-8.583-6.011 2.17-8.297.617-8.583-5.787-4.79 4.257-7.58 3.664-10.509-2.122-2.929 5.786-5.72 6.38-10.509 2.122-.287 6.404-2.572 7.958-8.583 5.787 2.171 6.01.618 8.296-5.787 8.582 4.258 4.79 3.664 7.58-2.121 10.51 5.785 2.928 6.379 5.72 2.121 10.508 6.405.287 7.958 2.572 5.787 8.583 6.011-2.17 8.296-.618 8.583 5.787 4.79-4.257 7.58-3.664 10.509 2.121 2.929-5.785 5.72-6.378 10.509-2.12.145-3.263.811-5.263 2.221-6.157l10.25 5.078-4.782-8.5-.016.01c-.205-3.23 1.864-4.584 6.695-4.8l.002-.002Z" fill="#000"/><path fill-rule="evenodd" clip-rule="evenodd" d="M57.121 41.078a3 3 0 0 1-.12 4.113v.002a3 3 0 0 1-1.99.877c-2.298.103-3.286.476-3.646.728-.104.073-.118.109-.127.131l-.001.004a.737.737 0 0 0-.04.143l4.398 7.816a3 3 0 0 1-3.946 4.159l-7.865-3.896c-.122.556-.23 1.334-.278 2.42a3 3 0 0 1-4.99 2.108c-2.35-2.088-3.237-2.033-3.36-2.008-.16.033-1.033.386-2.48 3.242a3 3 0 0 1-5.353 0c-1.446-2.856-2.318-3.209-2.48-3.242-.122-.025-1.01-.08-3.359 2.009a3 3 0 0 1-4.99-2.109c-.066-1.464-.24-2.44-.456-3.069a2.372 2.372 0 0 0-.269-.573.427.427 0 0 0-.101-.115c-.006-.004-.04-.027-.138-.049a2.285 2.285 0 0 0-.617-.032c-.653.037-1.614.244-2.986.739a3 3 0 0 1-3.84-3.84c.495-1.372.702-2.333.738-2.986a2.288 2.288 0 0 0-.031-.617c-.023-.098-.045-.132-.05-.137a.428.428 0 0 0-.114-.103 2.37 2.37 0 0 0-.574-.268c-.628-.216-1.605-.391-3.069-.456a3 3 0 0 1-2.108-4.99c2.088-2.35 2.033-3.238 2.008-3.36-.033-.161-.385-1.034-3.242-2.48a3 3 0 0 1 0-5.353c2.857-1.446 3.21-2.319 3.242-2.48.025-.122.08-1.01-2.008-3.36a3 3 0 0 1 2.108-4.99c1.464-.065 2.441-.24 3.07-.456a2.37 2.37 0 0 0 .573-.268.427.427 0 0 0 .114-.102.403.403 0 0 0 .05-.138c.024-.109.049-.304.031-.617-.036-.653-.243-1.614-.739-2.985a3 3 0 0 1 3.841-3.841c1.372.495 2.333.702 2.986.739.312.017.508-.007.617-.032.098-.022.131-.045.137-.049a.427.427 0 0 0 .102-.115c.067-.096.165-.272.269-.573.216-.628.39-1.606.456-3.07a3 3 0 0 1 4.99-2.107c2.35 2.088 3.237 2.033 3.36 2.008.16-.033 1.033-.386 2.48-3.243a3 3 0 0 1 5.352 0c1.447 2.857 2.32 3.21 2.48 3.243.123.025 1.01.08 3.36-2.008a3 3 0 0 1 4.99 2.108c.066 1.463.24 2.44.456 3.069.104.301.202.477.269.573.06.087.096.111.102.115a.4.4 0 0 0 .137.049c.11.025.305.05.617.032.653-.037 1.614-.244 2.986-.739a3 3 0 0 1 3.84 3.84c-.495 1.372-.702 2.333-.738 2.986-.018.313.007.508.032.617.022.098.044.132.048.137a.427.427 0 0 0 .115.103c.096.066.272.165.574.268.628.216 1.605.391 3.069.456a3 3 0 0 1 2.108 4.99c-2.088 2.35-2.033 3.238-2.008 3.36.033.161.385 1.034 3.242 2.48a3 3 0 0 1 0 5.353c-2.857 1.446-3.21 2.319-3.242 2.48-.025.122-.08 1.01 2.008 3.36Zm-14.39 10.207 10.25 5.078-4.783-8.5-.016.01v-.002l-.002-.035c-.07-1.21.181-2.155.782-2.874.531-.637 1.336-1.096 2.432-1.406.942-.266 2.1-.421 3.483-.483l.002-.002-.002-.002c-.916-1.03-1.608-1.969-2.07-2.836-1.245-2.327-.843-4.14 1.268-5.853.755-.613 1.73-1.212 2.925-1.818-1.196-.605-2.17-1.204-2.925-1.817-2.11-1.712-2.512-3.525-1.27-5.852.464-.868 1.156-1.807 2.074-2.84-1.385-.062-2.543-.217-3.485-.483-2.464-.696-3.456-2.15-3.18-4.673.107-.976.403-2.112.878-3.426-1.314.474-2.45.771-3.427.878-2.523.276-3.977-.716-4.672-3.18-.267-.943-.422-2.1-.484-3.485-1.032.917-1.972 1.61-2.84 2.073-2.326 1.243-4.14.841-5.852-1.27-.612-.755-1.212-1.729-1.817-2.925-.605 1.196-1.205 2.17-1.817 2.925-1.712 2.111-3.526 2.513-5.852 1.27-.868-.463-1.808-1.156-2.84-2.073-.062 1.384-.217 2.542-.484 3.485-.696 2.464-2.15 3.456-4.672 3.18-.976-.107-2.113-.404-3.427-.878.475 1.314.772 2.45.878 3.426.276 2.523-.716 3.977-3.18 4.673-.942.266-2.1.421-3.485.483.918 1.033 1.61 1.972 2.074 2.84 1.242 2.327.84 4.14-1.27 5.852-.755.613-1.73 1.212-2.925 1.817 1.196.606 2.17 1.205 2.925 1.818 2.11 1.712 2.512 3.525 1.27 5.852-.464.868-1.156 1.807-2.074 2.84 1.385.061 2.543.217 3.485.483 2.464.696 3.456 2.15 3.18 4.673-.106.976-.403 2.112-.878 3.426 1.315-.474 2.45-.771 3.427-.878 2.523-.276 3.976.716 4.672 3.18.267.943.422 2.1.484 3.485 1.032-.917 1.972-1.61 2.84-2.073 2.326-1.243 4.14-.841 5.852 1.27.612.755 1.212 1.729 1.817 2.925.605-1.196 1.205-2.17 1.817-2.925 1.712-2.111 3.526-2.513 5.852-1.27.868.463 1.808 1.156 2.84 2.073.062-1.385.217-2.543.484-3.485.361-1.276.926-2.157 1.737-2.67Z" fill="#000"/><path d="M54.879 41.072c-4.258-4.79-3.664-7.58 2.121-10.51-5.785-2.928-6.379-5.72-2.121-10.509-6.405-.286-7.958-2.571-5.787-8.582-6.011 2.17-8.297.617-8.583-5.787C35.719 9.94 32.929 9.348 30 3.562c-2.929 5.786-5.72 6.38-10.509 2.122-.287 6.404-2.572 7.958-8.583 5.787 2.171 6.01.618 8.296-5.787 8.582 4.258 4.79 3.664 7.58-2.121 10.51 5.785 2.928 6.379 5.72 2.121 10.509 6.405.286 7.958 2.571 5.787 8.582 6.011-2.17 8.296-.618 8.583 5.787 4.79-4.257 7.58-3.664 10.509 2.121 2.929-5.785 5.72-6.378 10.509-2.12.145-3.263.811-5.263 2.221-6.157l10.25 5.078-4.782-8.5-.016.01c-.205-3.23 1.864-4.584 6.695-4.8l.002-.002Z" fill="#fff"/><path fill-rule="evenodd" clip-rule="evenodd" d="M57.121 39.078a3 3 0 0 1-.12 4.113v.002a3 3 0 0 1-1.99.877c-2.298.103-3.286.476-3.646.728-.104.073-.118.109-.127.131l-.001.004a.737.737 0 0 0-.04.143l4.398 7.816a3 3 0 0 1-3.946 4.159l-7.865-3.896c-.122.556-.23 1.334-.278 2.42a3 3 0 0 1-4.99 2.108c-2.35-2.088-3.237-2.033-3.36-2.008-.16.033-1.033.386-2.48 3.242a3 3 0 0 1-5.353 0c-1.446-2.856-2.318-3.209-2.48-3.242-.122-.025-1.01-.08-3.359 2.009a3 3 0 0 1-4.99-2.109c-.066-1.464-.24-2.44-.456-3.069a2.372 2.372 0 0 0-.269-.573.427.427 0 0 0-.101-.115c-.006-.004-.04-.027-.138-.049a2.285 2.285 0 0 0-.617-.032c-.653.037-1.614.244-2.986.739a3 3 0 0 1-3.84-3.84c.495-1.372.702-2.333.738-2.986a2.288 2.288 0 0 0-.031-.617c-.023-.098-.045-.132-.05-.137a.428.428 0 0 0-.114-.103 2.37 2.37 0 0 0-.574-.268c-.628-.216-1.605-.391-3.069-.456a3 3 0 0 1-2.108-4.99c2.088-2.35 2.033-3.238 2.008-3.36-.033-.161-.385-1.034-3.242-2.48a3 3 0 0 1 0-5.353c2.857-1.446 3.21-2.319 3.242-2.48.025-.122.08-1.01-2.008-3.36a3 3 0 0 1 2.108-4.99c1.464-.065 2.441-.24 3.07-.456a2.37 2.37 0 0 0 .573-.268.427.427 0 0 0 .114-.102.403.403 0 0 0 .05-.138c.024-.109.049-.304.031-.617-.036-.653-.243-1.614-.739-2.985a3 3 0 0 1 3.841-3.841c1.372.495 2.333.702 2.986.739.312.017.508-.007.617-.032a.401.401 0 0 0 .137-.049.428.428 0 0 0 .102-.115 2.37 2.37 0 0 0 .269-.573c.216-.628.39-1.606.456-3.07a3 3 0 0 1 4.99-2.107c2.35 2.088 3.237 2.033 3.36 2.008.16-.033 1.033-.386 2.48-3.243a3 3 0 0 1 5.352 0c1.447 2.857 2.32 3.21 2.48 3.243.123.025 1.01.08 3.36-2.008a3 3 0 0 1 4.99 2.108c.066 1.463.24 2.44.456 3.069.104.301.202.477.269.573.06.087.096.111.102.115.005.004.04.027.137.049.11.025.305.05.617.032.653-.037 1.614-.244 2.986-.739a3 3 0 0 1 3.84 3.84c-.495 1.372-.702 2.333-.738 2.986-.018.313.007.508.032.617.022.098.044.132.048.137a.427.427 0 0 0 .115.103c.096.066.272.165.574.268.628.216 1.605.391 3.069.456a3 3 0 0 1 2.108 4.99c-2.088 2.35-2.033 3.238-2.008 3.36.033.161.385 1.034 3.242 2.48a3 3 0 0 1 0 5.353c-2.857 1.446-3.21 2.319-3.242 2.48-.025.122-.08 1.01 2.008 3.36Zm-14.39 10.207 10.25 5.078-4.783-8.5-.016.01v-.002l-.002-.035c-.07-1.21.181-2.155.782-2.874.531-.637 1.336-1.096 2.432-1.406.942-.266 2.1-.421 3.483-.483l.002-.002-.002-.002c-.916-1.03-1.608-1.969-2.07-2.836-1.245-2.327-.843-4.14 1.268-5.853.755-.613 1.73-1.212 2.925-1.818-1.196-.605-2.17-1.204-2.925-1.817-2.11-1.712-2.512-3.525-1.27-5.852.464-.868 1.156-1.807 2.074-2.84-1.385-.062-2.543-.217-3.485-.483-2.464-.696-3.456-2.15-3.18-4.673.107-.976.403-2.112.878-3.426-1.314.474-2.45.771-3.427.878-2.523.276-3.977-.716-4.672-3.18-.267-.943-.422-2.1-.484-3.485-1.032.917-1.972 1.61-2.84 2.073-2.326 1.243-4.14.841-5.852-1.27-.612-.755-1.212-1.729-1.817-2.925-.605 1.196-1.205 2.17-1.817 2.925C26.47 8.598 24.657 9 22.33 7.757c-.868-.463-1.808-1.156-2.84-2.073-.062 1.384-.217 2.542-.484 3.485-.696 2.464-2.15 3.456-4.672 3.18-.976-.107-2.113-.404-3.427-.878.475 1.314.772 2.45.878 3.426.276 2.523-.716 3.977-3.18 4.673-.942.266-2.1.421-3.485.483.918 1.033 1.61 1.972 2.074 2.84 1.242 2.327.84 4.14-1.27 5.852-.755.613-1.73 1.212-2.925 1.817 1.196.606 2.17 1.205 2.925 1.818 2.11 1.712 2.512 3.525 1.27 5.852-.464.868-1.156 1.807-2.074 2.84 1.385.061 2.543.217 3.485.483 2.464.696 3.456 2.15 3.18 4.673-.106.976-.403 2.112-.878 3.426 1.315-.474 2.45-.771 3.427-.878 2.523-.276 3.976.716 4.672 3.18.267.943.422 2.1.484 3.485 1.032-.917 1.972-1.61 2.84-2.073 2.326-1.243 4.14-.841 5.852 1.27.612.755 1.212 1.729 1.817 2.925.605-1.196 1.205-2.17 1.817-2.925 1.712-2.111 3.526-2.513 5.852-1.27.868.463 1.808 1.156 2.84 2.073.062-1.385.217-2.543.484-3.485.361-1.276.926-2.157 1.737-2.67Z" fill="#000"/><path d="M43.02 26.145a1.502 1.502 0 0 0-1.853.398c-.014.022-1.77 2.152-4.724 1.657-3.908-.66-4.988-5.812-4.995-5.857a1.496 1.496 0 0 0-1.53-1.208 1.495 1.495 0 0 0-1.523 1.208c-.008.052-1.095 5.422-4.912 5.842-3.015.338-4.778-1.605-4.838-1.68a1.502 1.502 0 0 0-1.845-.345 1.49 1.49 0 0 0-.742 1.718l4.334 15.817c.18.653.773 1.103 1.448 1.103h16.162c.675 0 1.268-.45 1.448-1.103l4.335-15.817a1.506 1.506 0 0 0-.765-1.733Zm-6.158 15.653H22.987l-3.022-11.04a8.8 8.8 0 0 0 3.855.405c3.135-.345 5.025-2.505 6.128-4.53 1.095 1.935 2.955 3.997 6 4.515a8.066 8.066 0 0 0 3.914-.285L36.87 41.79l-.008.008ZM16.335 21.038c-1.05 0-1.912.855-1.912 1.912a1.91 1.91 0 0 0 1.912 1.913 1.91 1.91 0 0 0 1.913-1.913 1.91 1.91 0 0 0-1.913-1.912ZM29.895 15.915a1.903 1.903 0 0 0-1.905 1.905c0 1.05.855 1.913 1.905 1.913s1.913-.855 1.913-1.913a1.905 1.905 0 0 0-1.913-1.905ZM43.665 21.038a1.91 1.91 0 0 0-1.912 1.912 1.91 1.91 0 0 0 1.912 1.913 1.91 1.91 0 0 0 1.913-1.913 1.91 1.91 0 0 0-1.913-1.912Z" fill="#000"/></svg>