<svg xmlns="http://www.w3.org/2000/svg" width="28" height="29" fill="none" viewBox="0 0 28 29" aria-hidden="true" focusable="false"><g clip-path="url(#IconRank2__a)"><path fill="#DADADA" d="M24.004 11.363a.296.296 0 0 0-.362.075c-.07.088-1.802 2.188-4.736 1.686-3.833-.653-4.824-5.472-4.836-5.518a.286.286 0 0 0-.32-.228h-.024a.294.294 0 0 0-.321.234c-.012.052-1.038 5.098-4.818 5.518-2.975.332-4.743-1.668-4.76-1.692a.29.29 0 0 0-.356-.07.3.3 0 0 0-.146.333L6.86 24.604a.29.29 0 0 0 .28.216h13.183a.29.29 0 0 0 .28-.216l3.535-12.903a.29.29 0 0 0-.151-.338z"></path><path fill="#000" d="M14.344 25.718H6.615c-.46 0-.863-.309-.986-.752L1.785 10.948c-.128-.46.082-.945.507-1.172a1.025 1.025 0 0 1 1.255.239c.064.076 1.715 1.907 4.555 1.598 3.605-.396 4.615-5.378 4.62-5.43a1.022 1.022 0 0 1 2.007.384c-.052.269-1.318 6.51-6.399 7.07a7.5 7.5 0 0 1-3.838-.56l2.905 10.594h6.947c.566 0 1.021.455 1.021 1.02 0 .567-.455 1.021-1.02 1.021z"></path><path fill="#000" d="M20.936 25.718h-7.73c-.565 0-1.02-.455-1.02-1.02 0-.566.455-1.021 1.02-1.021h6.948l2.876-10.5a6.7 6.7 0 0 1-3.873.455c-5.075-.864-6.294-6.808-6.341-7.059-.105-.554.25-1.09.805-1.196.554-.105 1.09.251 1.196.805.011.047 1.003 4.813 4.678 5.437 2.8.479 4.462-1.557 4.48-1.575a1.019 1.019 0 0 1 1.78.904L21.91 24.966a1.024 1.024 0 0 1-.986.752z"></path><path fill="#000" d="M11.422 20.486a34 34 0 0 0 1.545-1.213c.42-.356.759-.671 1.015-.957.257-.286.444-.543.56-.782s.175-.46.175-.682q.002-.991-1.108-.992-.909-.002-2.053.758l-.362-1.102q1.084-.805 2.613-.805c.741 0 1.301.17 1.68.502.38.338.572.828.572 1.481q-.001.448-.152.887-.156.439-.49.892a7 7 0 0 1-.851.945q-.518.489-1.254 1.039v.017h2.817v1.138h-4.696v-1.138z"></path></g><defs><clipPath id="IconRank2__a"><path fill="#fff" d="M1.75 5.354h24.051v20.364H1.75z"></path></clipPath></defs></svg>