<svg xmlns="http://www.w3.org/2000/svg" width="28" height="29" fill="none" viewBox="0 0 28 29" aria-hidden="true" focusable="false"><g clip-path="url(#IconRank3__a)"><path fill="#E09B75" d="M23.975 11.193a.296.296 0 0 0-.362.076c-.07.088-1.802 2.188-4.736 1.686-3.833-.653-4.824-5.472-4.836-5.518a.286.286 0 0 0-.321-.228h-.023a.294.294 0 0 0-.321.233c-.012.053-1.038 5.099-4.819 5.519-2.975.332-4.742-1.668-4.76-1.692a.29.29 0 0 0-.355-.07.3.3 0 0 0-.146.333L6.83 24.435a.29.29 0 0 0 .28.216h13.183a.29.29 0 0 0 .28-.216l3.535-12.903a.29.29 0 0 0-.152-.339z"></path><path fill="#000" d="M14.344 25.718H6.615c-.46 0-.863-.309-.986-.752L1.785 10.948c-.128-.46.082-.945.507-1.172a1.025 1.025 0 0 1 1.255.239c.064.076 1.72 1.907 4.555 1.598 3.605-.396 4.615-5.378 4.62-5.43a1.022 1.022 0 0 1 2.007.384c-.052.269-1.318 6.51-6.399 7.07a7.5 7.5 0 0 1-3.838-.56l2.905 10.594h6.947c.566 0 1.021.455 1.021 1.02 0 .567-.455 1.021-1.02 1.021z"></path><path fill="#000" d="M20.936 25.718h-7.73c-.565 0-1.02-.455-1.02-1.02 0-.566.455-1.021 1.02-1.021h6.948l2.876-10.5a6.7 6.7 0 0 1-3.873.455c-5.075-.864-6.294-6.808-6.341-7.059-.105-.554.25-1.09.805-1.196.554-.105 1.09.251 1.196.805.011.047 1.003 4.813 4.678 5.437 2.8.479 4.462-1.557 4.48-1.575a1.019 1.019 0 0 1 1.78.904L21.91 24.966a1.024 1.024 0 0 1-.986.752z"></path><path fill="#000" d="M13.353 22.05a4.64 4.64 0 0 1-2.176-.526l.28-1.085c.239.117.449.216.641.286q.288.107.566.152t.566.046c.484 0 .857-.093 1.108-.28q.385-.278.385-.81c0-.245-.064-.438-.198-.595q-.202-.23-.642-.327c-.297-.064-.688-.1-1.178-.1h-.67v-1.06l2.082-1.477v-.017h-2.859v-1.12h4.62v1.12l-2.205 1.575v.017h.356q.963 0 1.505.525.543.525.543 1.453c0 .711-.24 1.254-.712 1.639-.473.385-1.143.572-2.007.572z"></path></g><defs><clipPath id="IconRank3__a"><path fill="#fff" d="M1.75 5.354h24.051v20.364H1.75z"></path></clipPath></defs></svg>